#!OML:ASF E:/inclinewalkrobotboard/Project1/Captureday1/Session1/subject1.ASF
:FULLY-SPECIFIED
:DEGREES
176
root 0 0 0 1.7464217606019847 -10.672885110337798 0.7758269788933254
lowerback 0.03203937860042916 -1.5304007543460127 -2.545095215783459
upperback -0.6497412285907528 -2.0077632208307037 1.9090346076207334
thorax -0.5039148703921661 -0.9831730757102414 3.351451552433804
lowerneck -24.463772112235418 -1.6176782307326132 -7.589937300886745
upperneck 28.214852180895583 0.3409429260254856 1.9106050977095255
head 13.600238200591312 -0.6051086562847757 2.2191622013579093
rclavicle -8.010471504767343E-15 1.4154064595510653E-15
rhumerus -30.970939001682456 -0.8133826561889252 -82.07146016695704
rradius 31.729024692594724
rwrist 18.510859514047368
rhand -18.344785985093953 9.07719806997458
rfingers 7.125019999999942
rthumb 7.937397371815141 -20.793948415640482
lclavicle -4.703833252200659E-16 3.1920006226940435E-16
lhumerus -20.8012975198331 -4.263538066268329 91.23964864296457
lradius 64.83390732121244
lwrist 1.8945429339587947
lhand -28.742393783242257 20.83029460115806
lfingers 7.125020000000025
lthumb -2.109822050954664 50.824813823340996
rfemur 6.736595488173036 8.905801501970883 37.91394627093406
rtibia 21.008425528635946
rfoot -23.60324015047913 -8.371926543315912
rtoes 2.000208191093049
lfemur -30.62862952547834 -0.26043571403671173 -10.487182196498338
ltibia 37.2774125722261
lfoot -6.799957814567006 2.5093095777387133
ltoes -4.860140797170914
177
root 0 0 0 1.7502634840928089 -10.68939172853535 0.7802443615546923
lowerback 0.01056508491211261 -1.5319798678778125 -2.5515681276612177
upperback -0.654366719404944 -2.0094783048833658 1.8856928427078583
thorax -0.49723781013359214 -0.9835448086971295 3.3310286085785923
lowerneck -24.443376984677823 -1.6246098697361213 -7.601551064159336
upperneck 28.320159524522886 0.3322297161199623 1.9058256375952058
head 13.633319655374542 -0.6117474545617693 2.218437676102101
rclavicle -9.406216012464102E-15 1.5342804476771739E-15
rhumerus -30.851035633221564 -0.14480072037174718 -82.10891522795343
rradius 31.816421392713284
rwrist 18.348142226841123
rhand -18.530974396439976 9.139839930483507
rfingers 7.125019999999943
rthumb 7.758881303136306 -20.748288536075975
lclavicle 2.468314194735025E-16 6.937070985854704E-17
lhumerus -20.640172687623807 -3.6931284429445994 91.05285547232874
lradius 64.70435316484114
lwrist 1.8470704267506632
lhand -28.65272633421569 20.718101210988678
lfingers 7.125020000000027
lthumb -2.019248021685483 50.7109852590061
rfemur 10.868645857940505 8.714770794471443 36.8827413148842
rtibia 23.13052466841113
rfoot -22.29071372030507 -6.965113406384942
rtoes -2.6114668096191025
lfemur -31.67865442324135 -3.7426517292342796 -8.914724381243829
ltibia 24.210536643271823
lfoot -5.771238912939403 4.435205236529487
ltoes -4.138775741659599
178
root 0 0 0 1.7494493850861663 -10.709852880278971 0.778846238893022
lowerback 0.0011122607418920794 -1.5351681126108936 -2.5569710305943545
upperback -0.6579053953610977 -2.0130396776901462 1.8635119421450228
thorax -0.49495315042249755 -0.9848170690844831 3.311241195252753
lowerneck -24.380442413673123 -1.611748527717471 -7.606921345704504
upperneck 28.475016114260363 0.3534478027929061 1.8729926642332915
head 13.677499601881292 -0.6095531873042106 2.211185274604806
rclavicle -1.0379315372125034E-14 1.3601194861582582E-15
rhumerus -30.859611043044612 0.1346190772209992 -81.98719108246151
rradius 31.750877085465973
rwrist 18.28934011966903
rhand -18.598465121345296 9.195361181015107
rfingers 7.1250199999999415
rthumb 7.693618682669858 -20.693830778092774
lclavicle -6.895701373112377E-16 2.161597279987579E-17
lhumerus -20.493934023189855 -2.9620981566927873 90.9101494731159
lradius 64.49016513340922
lwrist 1.696697892802089
lhand -28.639639004364064 20.594734105791055
lfingers 7.125020000000028
lthumb -1.9999652798813745 50.57980308585271
rfemur 14.046737292160026 7.795212461792913 35.1591769319994
rtibia 30.074040914154896
rfoot -18.70294867804135 -4.666483214551969
rtoes -6.629840162035282
lfemur -30.381057377999422 -5.180949696739962 -9.146146275510882
ltibia 19.79693482058923
lfoot -4.4390719523170254 3.9539654062339413
ltoes -3.433794120058571
179
root 0 0 0 1.735875191691981 -10.758943417139436 0.7869518778556627
lowerback -0.02825984262202552 -1.5458031845888784 -2.5686952857104615
upperback -0.680532857096827 -2.0260086782415256 1.8281142948439904
thorax -0.49848097958765913 -0.9895934305033655 3.2795851487015204
lowerneck -24.398778099803597 -1.6101607736349477 -7.605916003871787
upperneck 28.63987687877228 0.36938295318015324 1.824660344902709
head 13.74202205754846 -0.6124204135143781 2.1966938899697515
rclavicle -1.1394282142754238E-14 1.1800130648226462E-15
rhumerus -30.97208702364675 0.2420788653075121 -81.72201647103532
rradius 31.567200375177375
rwrist 18.305937166837992
rhand -18.609439454136655 9.2429077377621
rfingers 7.125019999999938
rthumb 7.682038967496166 -20.639675530451715
lclavicle -3.303902300824663E-15 3.7857479085046047E-16
lhumerus -19.8725284233757 -1.7899941084740014 90.65082741614339
lradius 64.11142881659227
lwrist 1.4509798106683847
lhand -28.736241263958156 20.522911317338952
lfingers 7.125020000000028
lthumb -2.086745758506713 50.491346177967344
rfemur 10.849428208378688 5.380591917252688 30.729710844619678
rtibia 42.61009926349578
rfoot -7.658519396735774 -0.9015438190527334
rtoes -5.567748112543723
lfemur -28.685868234398704 -4.972155232907783 -10.957895320225532
ltibia 21.73148156210277
lfoot -2.8268028123631765 2.00896181536057
ltoes -0.7095477069254894
180
root 0 0 0 1.7290618565252043 -10.815749336370208 0.8070940251044534
lowerback -0.07323596424166023 -1.5617493624865837 -2.5859748041394917
upperback -0.700497586851045 -2.0473755995066347 1.7960497255517551
thorax -0.490904688965455 -0.9988387971324262 3.2551968006239713
lowerneck -24.50959483926658 -1.6254592519639521 -7.615470032113693
upperneck 28.642374863608282 0.36719590770573096 1.8074243457474917
head 13.768049227173403 -0.6158985145362914 2.189465545253805
rclavicle -1.140199508422945E-14 1.025631514423088E-15
rhumerus -31.120188175156272 -0.0985203696060113 -81.55455179378939
rradius 31.421371120755897
rwrist 18.42216536819014
rhand -18.516040519333973 9.215301196727802
rfingers 7.125019999999936
rthumb 7.7708827435308745 -20.655850703042546
lclavicle -3.5031385461898786E-15 5.438324748325101E-16
lhumerus -19.382301648407914 -1.1077660747888878 90.47578823301865
lradius 63.93531794099634
lwrist 1.294076054566689
lhand -28.821682067657772 20.50931349084956
lfingers 7.125020000000027
lthumb -2.1669491354530335 50.46645003856293
rfemur 2.808239316413218 3.56880123586412 25.94457816618833
rtibia 55.201813871168724
rfoot 3.824489404511503 1.0788515069634532
rtoes 1.350244187422232
lfemur -25.73151908585425 -4.108124061429457 -14.19441344350211
ltibia 28.097137423444302
lfoot -1.5325894856634905 -1.7402588503274998
ltoes 3.198938439320397
181
root 0 0 0 1.7445747497053083 -10.882662215718153 0.8353292975567834
lowerback -0.1441285803758552 -1.591891924983562 -2.6156034752346145
upperback -0.6951554425935172 -2.0877587509374056 1.7504041112666358
thorax -0.4432794012858089 -1.019032000538202 3.223635910657162
lowerneck -24.618919697091854 -1.6381490496884998 -7.661186787529737
upperneck 28.660129722178333 0.36483620087531066 1.8158480340901348
head 13.794974727915301 -0.6141057326445258 2.194885547707421
rclavicle -1.055416777521995E-14 7.024989726259294E-16
rhumerus -31.45841267411505 -1.1969116505012032 -81.34232881571943
rradius 31.17186171776272
rwrist 18.743328913736168
rhand -18.258399193554755 9.117836579069671
rfingers 7.125019999999934
rthumb 8.018050651320138 -20.734273196087553
lclavicle -3.2724944987298125E-15 4.975632570962679E-16
lhumerus -19.126437487188515 -0.944510189559411 90.40974477411544
lradius 63.90103796969154
lwrist 1.2191882235246054
lhand -28.883855025909252 20.464535537527745
lfingers 7.125020000000025
lthumb -2.2269362202494847 50.416901782430436
rfemur -6.637434984863461 2.51044396520974 24.446641828913833
rtibia 62.97625878680685
rfoot 8.538133328509165 -0.9433474329164193
rtoes 10.29671482287027
lfemur -20.535656786080654 -3.1777369960591426 -18.89429240061519
ltibia 32.71814137700828
lfoot -1.9642497922535895 -4.420185183616645
ltoes 7.884361717839086
182
root 0 0 0 1.781999114652299 -10.900652291646205 0.8508448091748877
lowerback -0.1864246077992726 -1.618362166317509 -2.6462102093061617
upperback -0.650367258219306 -2.1232760888212767 1.7172911500370451
thorax -0.37357818713348556 -1.038485887138129 3.206235667731192
lowerneck -24.60479351267023 -1.6338232548222766 -7.732626032512688
upperneck 28.675485786287183 0.35858464230929576 1.872880402735514
head 13.781916166087303 -0.6038760042022336 2.219903553007101
rclavicle -7.224246157596524E-15 1.1194268887235543E-15
rhumerus -31.989755377858824 -2.9871872394180987 -81.07961788928527
rradius 30.803016971285757
rwrist 19.244268172303194
rhand -17.864641701622666 8.995819115234347
rfingers 7.125019999999932
rthumb 8.398089827087025 -20.83921902528972
lclavicle -2.4864812650989136E-15 8.919431753588854E-16
lhumerus -19.298849555781345 -1.6627050124704605 90.37752075729352
lradius 64.18640546327237
lwrist 1.496803308124178
lhand -28.738899092618578 20.635762858706908
lfingers 7.125020000000025
lthumb -2.091851917431974 50.60584009778561
rfemur -11.422826861068643 1.1103460967776302 21.799931769703388
rtibia 70.535808207953
rfoot 4.350578880274536 -4.217620961614439
rtoes 10.72311670760116
lfemur -16.00320215400529 -2.954452507669786 -22.16151990664226
ltibia 31.457808703799635
lfoot -5.339374224068994 -3.586312671061509
ltoes 9.752586107271659
